# xmcd
#
# Track frame offsets: 
#        150
#        13827
#        28321
#        42397
#        53766
#        65701
#        74876
#        84958
#        96397
#        107740
#        116072
#        128193
#        139128
#        151711
#        163679
#        176343
#        188786
#        201176
#        213381
#        223670
#
# Disc length: 3162 seconds
#
# Revision: 0
# Processed by: cddbd v1.5.2PL0 Copyright (c) Steve Scherf et al.
# Submitted via: ExactAudioCopy v1.0b6
#
DISCID=2f0c5814
DTITLE=Various Artist - Forever Nashville CD3
DYEAR=2015
DGENRE=Country
TTITLE0=George Jones - Life To Go
TTITLE1=Jeannie C. Riley - Harper Valley P.T.A.
TTITLE2=The Carter Family - Can The Circle Be Unbroken
TTITLE3=Tennessee Ernie Ford - The Shotgun Boogie
TTITLE4=T. Texas Tyler - It's Been So Long Darling
TTITLE5=Jim Reeves - I Get The Blues When It Rains
TTITLE6=Patsy Cline - Three Cigarettes In An Ashtray
TTITLE7=Bill Monroe and His Bluegrass Boys - Orange Blossom Special
TTITLE8=Bob Wills and His Texas Playboys - New Spanish Two-Step
TTITLE9=Boxcar Willie - Hey, Good Lookin'
TTITLE10=David Allan Coe - Mississippi Woman
TTITLE11=Brenda Lee - Fool Number One
TTITLE12=Charles Smith - Stand Up And Take It Like A Man
TTITLE13=Mickey Gilley - You Can Count Me Missing
TTITLE14=Porter Wagoner - Satisfied Mind
TTITLE15=Randy Travis - Dreamin'
TTITLE16=Kitty Wells - Touch And Go Heart
TTITLE17=Hank Williams - Lost Highway
TTITLE18=Hank Locklin - These Arms You Push Away
TTITLE19=Patti Page - Tennessee Waltz
EXTD=
EXTT0=
EXTT1=
EXTT2=
EXTT3=
EXTT4=
EXTT5=
EXTT6=
EXTT7=
EXTT8=
EXTT9=
EXTT10=
EXTT11=
EXTT12=
EXTT13=
EXTT14=
EXTT15=
EXTT16=
EXTT17=
EXTT18=
EXTT19=
PLAYORDER=
